<svg xmlns="http://www.w3.org/2000/svg" xml:space="preserve" width="210mm" height="213mm" viewBox="0 0 210 213"><path d="M106.263 206.773c-.29-1.27-1.79-19.417-1.62-19.588.105-.104.97-.262 1.926-.35 2.131-.199 2.086-.234 5.135 3.974a339 339 0 0 0 3.98 5.37c2.129 2.792 2.183 2.74 1.584-1.553a79 79 0 0 1-.526-5.494l-.15-2.799 1.87-.278c1.157-.172 1.957-.193 2.095-.056.184.184 1.028 8.792 1.755 17.887l.157 1.956-.811.145c-.447.08-1.394.169-2.105.197l-1.294.05-1.64-2.152c-4.838-6.347-7.456-9.58-7.263-8.968.153.489.848 9.095.848 10.513v1.14l-1.356.272c-2.01.404-2.442.36-2.585-.266m-14.236-.349c-2.96-.323-5.46-.663-5.558-.756-.16-.153 2.085-19.837 2.286-20.038.112-.112 12.15 1.301 12.292 1.443.06.06-.022.926-.183 1.923-.224 1.384-.384 1.814-.678 1.816-.213.002-1.922-.175-3.799-.393s-3.476-.334-3.554-.257c-.212.213-.682 3.72-.52 3.883.078.077 1.552.258 3.276.403l3.135.262-.015.62c-.02.875-.363 2.872-.52 3.029-.072.072-1.492.004-3.155-.153-1.664-.157-3.096-.213-3.183-.126s-.279 1.06-.427 2.165l-.269 2.007 1.333.148c.733.082 2.43.242 3.77.355 1.341.113 2.566.285 2.723.382.29.179.177 3.186-.138 3.696-.188.305-.378.293-6.816-.409m39.512-2.536c-.234-.299-3.84-10.152-5.675-15.512-.83-2.422-1.01-3.198-.777-3.343.404-.253 3.396-1.16 3.825-1.16.227 0 .767 1.31 1.628 3.946.709 2.17 1.355 3.946 1.436 3.946.082 0 .278-.565.436-1.255.542-2.37 2.477-8.67 2.75-8.953.258-.266 4.2-1.378 4.341-1.224.037.04-.553 1.956-1.31 4.258-1.851 5.629-2.081 6.573-1.712 7.018.16.194 2.315 1.613 4.788 3.155s4.75 2.994 5.06 3.228l.563.426-2.097 1.038-2.097 1.039-1.24-.69c-.681-.378-2.5-1.479-4.043-2.444-2.698-1.69-4.013-2.296-4.013-1.848 0 .116.42 1.557.933 3.2 1.376 4.41 1.43 4.056-.736 4.815-1.384.485-1.892.574-2.06.36m-58.73-1.739c-3.231-.782-6.263-3.082-7.593-5.76-.513-1.034-.573-1.47-.573-4.145 0-2.938.015-3.02.858-4.783 1.143-2.391 2.935-4.322 4.916-5.297 4.287-2.11 10.386-.328 12.394 3.622.696 1.369.926 2.437.724 3.358l-.16.727-1.952-.07-1.952-.069-.136-1.02c-.177-1.321-.83-2.196-2.141-2.866-3.65-1.865-7.966 1.308-8.306 6.108-.148 2.1.257 3.549 1.256 4.491 1.084 1.022 3.315 1.827 4.803 1.733 1.102-.07 1.201-.132 1.607-.995.664-1.417.507-1.652-1.45-2.163-1.265-.33-1.727-.556-1.713-.837.035-.732.85-2.744 1.201-2.966.326-.205 5.331 1.21 7.55 2.136l.76.316-1.64 3.757c-1.805 4.136-1.865 4.202-4.302 4.782-1.621.385-2.36.374-4.151-.06zm24.36-22.59c-22.057-2.45-41.088-14.086-53.381-32.637-9.688-14.62-13.803-33.149-11.196-50.419 1.664-11.02 6.52-23.07 12.79-31.734 3.865-5.339 10.043-11.763 14.828-15.415 19.5-14.887 45.194-18.926 68.768-10.81 21.154 7.284 37.94 24.456 44.934 45.966 4.366 13.425 4.628 28.553.734 42.214-7.37 25.852-28.31 45.754-54.18 51.495-5.366 1.191-7.377 1.395-14.567 1.476-3.75.042-7.678-.02-8.73-.136m13.393-3.112c13.82-1.185 26.432-6.231 37.55-15.024 2.367-1.873 7.246-6.68 9.499-9.359 8.83-10.502 14.299-23.047 16.124-36.99.489-3.74.554-11.955.124-15.746-1.436-12.656-6.244-24.568-14.065-34.848-2.308-3.033-8.508-9.316-11.563-11.718-4.324-3.398-8.021-5.7-12.962-8.066-9.81-4.7-19.717-6.953-30.565-6.952-9.483 0-17.916 1.625-26.668 5.136-11.71 4.699-21.618 12.462-29.461 23.085-6.568 8.895-10.973 19.52-12.793 30.852-.488 3.039-.556 4.297-.554 10.165.003 5.192.099 7.33.429 9.518 1.694 11.234 5.81 21.69 11.977 30.421 5.116 7.246 11.385 13.386 18.563 18.18 12.947 8.649 28.735 12.686 44.365 11.346m-7.414-16.003c-1.384-.365-2.254-.42-5.022-.32-6.519.237-11.839-1.334-16.401-4.845-2.031-1.563-3.062-2.857-5.276-6.623-2.295-3.906-4.474-6.337-7.325-8.175-2.098-1.353-3.028-1.757-4.795-2.083-3.17-.586-6.007-2.539-6.982-4.806-.733-1.703-.588-3.959.36-5.606 2.446-4.252 8.695-6.596 13.279-4.978.751.265.951.272.951.032 0-.612-2.954-4.632-4.74-6.448-4.385-4.463-7.75-6.138-13.774-6.857-4.113-.491-5.834-1.294-6.983-3.255-.545-.93-.65-1.389-.648-2.816.005-2.966 1.556-6.023 4.82-9.5 7.23-7.704 16.789-10.629 26.458-8.096 2.46.644 9.5 3.645 11.563 4.93.961.598 1.813 1.023 1.892.944.24-.24-.404-2.093-1.255-3.615-1.048-1.874-2.677-3.698-4.607-5.16-2.03-1.537-3.383-2.17-6.866-3.21-5.1-1.524-7.116-2.764-8.167-5.021-2.601-5.586 3.83-14.464 14.265-19.695 5.717-2.866 9.647-3.84 16.264-4.03 3.777-.11 4.847-.056 7.314.365 4.978.85 7.51 1.772 15.895 5.79 5.27 2.524 8.772 4.019 11.47 4.896.723.235 2.553.98 4.065 1.654 10.324 4.605 15.643 10.871 14.007 16.501-.764 2.628-3.186 4.398-8.028 5.867-6.688 2.03-7.882 2.452-9.327 3.292-2.393 1.39-5.66 4.785-6.88 7.147-.84 1.628-1.73 4.17-1.73 4.944 0 .113.457-.166 1.017-.62 4.621-3.747 11.924-5.046 18.34-3.263 5.153 1.433 10.924 5.4 13.51 9.29 2.782 4.185 3.02 7.991.66 10.603-1.11 1.228-1.676 1.496-4.137 1.957-4.908.919-8.426 2.824-11.83 6.407-2.41 2.538-3.813 4.799-7.019 11.315-3.65 7.418-5.017 9.46-8.973 13.393-3.95 3.928-5.754 5.291-9.34 7.06-5.382 2.654-11.892 3.725-16.025 2.635m-7.773-3.924c0-.048-.72-.506-1.602-1.016-2.152-1.247-7.93-6.788-7.079-6.788.11 0 .952.549 1.87 1.22s2.369 1.57 3.224 2c1.56.782 4.028 1.685 4.176 1.528.043-.047-1.228-1.212-2.826-2.59-3.915-3.376-5.361-4.858-6.54-6.702-2.01-3.142-2.175-3.237-1.736-1.001.156.79.24 1.566.188 1.723-.053.158-.48-.29-.95-.995-1.295-1.944-3.04-3.772-3.972-4.161-.46-.192-.87-.35-.913-.35s.349.835.871 1.854c.894 1.744 1.557 3.587 1.362 3.783-.048.048-1.212-1.02-2.587-2.375-1.407-1.387-3.158-2.847-4.007-3.34-.829-.483-1.564-.878-1.634-.878s.609.8 1.507 1.779c1.554 1.692 2.573 3.2 5.243 7.764 2.174 3.717 4.763 5.894 8.709 7.322 2.025.733 6.696 1.586 6.696 1.223m21.722-4.063c1.628-1.197 4.223-3.551 7.157-6.491 2.533-2.537 4.603-4.543 4.602-4.459-.018 1.249-6.925 8.985-10.874 12.18-1.268 1.024-.942.97 1.367-.232 7.374-3.836 12.986-11.204 17.275-22.676 2.256-6.036 4.59-10.154 6.777-11.957.48-.395.75-.72.601-.72-.5 0-2.876 2.117-4.082 3.638-1.568 1.976-2.664 3.806-5.056 8.44-2.026 3.926-2.568 4.834-2.766 4.636-.062-.063.644-2.307 1.57-4.988 1.673-4.84 2.888-7.583 4.427-9.991.441-.69.685-1.256.541-1.256-.143 0-.878.63-1.631 1.4-1.614 1.65-3.058 4.42-4.568 8.765-1.253 3.602-2.748 6.64-4.296 8.729-1.967 2.654-2.596 2.866-1.092.368 1.297-2.154 2.432-5.096 4.2-10.891.904-2.96 1.716-5.57 1.804-5.8.243-.63-.526-.532-.929.12-.183.296-1.068 2.248-1.967 4.339-.9 2.09-1.676 3.677-1.726 3.526s.082-1.796.295-3.654.325-3.44.248-3.517c-.297-.297-.966.41-1.23 1.3-.153.515-.652 2.669-1.11 4.788-.74 3.428-1.672 6.322-1.946 6.048-.054-.054.015-1.383.154-2.953.18-2.05.176-3.596-.017-5.485-.284-2.794-.49-3.297-1.175-2.867-.335.21-.444.792-.58 3.102-.171 2.893-.785 6.315-1.133 6.315-.106 0-.27-1.157-.366-2.571s-.297-3.379-.449-4.365c-.268-1.747-.294-1.796-.993-1.864l-.718-.071v3.3c0 3.536-.255 6.049-.615 6.049-.122 0-.222-.458-.223-1.017 0-1.603-.7-5.19-1.206-6.18-.497-.975-1.166-1.604-.845-.795.41 1.034.428 4.076.037 6.153-.817 4.332-2.417 7.75-6.47 13.822-3.231 4.838-3.944 6.234-4.122 8.075l-.13 1.347.75-1.016c.411-.558 2.079-2.46 3.705-4.226 2.897-3.146 5.707-6.649 6.198-7.727.136-.3.338-.544.448-.544.28 0 .27.045-.365 1.729-.735 1.945-1.663 3.507-4.09 6.881-2.017 2.807-3.287 4.911-3.606 5.978-.194.652.36.229 4.574-3.49 1.982-1.75 3.158-2.623 3.311-2.46.048.05-1.029 1.49-2.392 3.2-1.364 1.71-2.483 3.185-2.486 3.277-.011.303 2.616-1.331 5.213-3.242m-16.682-3.083c-.116-.296-.75-1.79-1.409-3.321-2.554-5.935-4.24-12.985-3.417-14.285q.207-.326.48 1.25c.151.866.657 2.68 1.124 4.033.84 2.435 3.824 8.858 4.862 10.47l.54.836-.141-1.522c-.088-.95-.81-3.51-1.923-6.816-2.401-7.132-3.003-10.296-3.003-15.78 0-2.983.518-7.224 1.082-8.861q.661-1.92-.469-.211c-.952 1.44-1.469 3.19-2.19 7.42-.363 2.138-.738 3.887-.833 3.887s-.25-1.588-.348-3.528c-.137-2.72-.09-4.152.205-6.255.21-1.5.327-2.819.258-2.93-.284-.46-.834-.145-1.283.736-.795 1.558-1.205 4.707-1.213 9.317-.008 4.74-.182 4.9-1.004.922-.41-1.991-.509-3.347-.524-7.27l-.019-4.82-.825-.135c-.453-.073-.884-.074-.956-.002-.073.073-.202 2.034-.287 4.358-.179 4.883-.144 4.566-.449 4.106-.418-.632-1.39-4.105-1.901-6.799-.502-2.642-.753-3.246-1.351-3.246-.443 0-.418 2.165.106 9.268.226 3.058.332 5.56.236 5.56-.322 0-1.152-3.154-2.134-8.111-1.263-6.378-2.434-9.255-3.945-9.691-.496-.144-.5-.125-.176 1.115.645 2.47 1.996 9.429 1.989 10.241-.01 1.124-.194.753-1.543-3.12-2.105-6.04-4.202-9.675-6.021-10.435-1.244-.52-1.312-.405-.537.909 2.172 3.682 3.889 7.996 4.63 11.627.682 3.345.36 3.321-1.012-.073-2.627-6.505-6.999-12.825-9.333-13.494-1.182-.34-.996.208.96 2.822 3.518 4.698 5.027 7.432 7.227 13.09.609 1.566 1.331 3.347 1.605 3.956l.499 1.108 1.706.162c4.286.408 7.144 1.643 9.777 4.227 1.859 1.823 2.583 3.229 2.748 5.339.103 1.314.034 1.603-.748 3.098-.475.906-.863 1.805-.863 1.998 0 .665 1.697 3.575 2.939 5.039 1.1 1.297 3.758 3.638 3.758 3.31 0-.068-.373-.75-.83-1.515-1.087-1.827-2.877-6.214-2.36-5.784.212.176 1.067 1.347 1.9 2.602 1.365 2.056 4.267 5.736 4.524 5.736.056 0 .007-.242-.108-.538m9.84-15.417c.432-1.346.866-2.45.965-2.454s.188.881.199 1.966c.018 1.856.038 1.93.338 1.247.483-1.097 1.077-4.233 1.077-5.678 0-1.777-.593-3.362-1.583-4.231-.454-.399-.974-.725-1.157-.725-.63 0-1.742-1.189-2.279-2.437-.673-1.564-.566-3.39.309-5.3.815-1.782 3.757-4.805 6.336-6.513 1.145-.758 2.156-1.44 2.247-1.516.092-.076.388-1.645.658-3.487.632-4.302 1.22-6.715 2.31-9.487 1.653-4.204 3.32-7.229 6.294-11.417 1.066-1.501 1.895-2.77 1.844-2.822-.558-.558-3.473 2.094-5.358 4.874-2.707 3.99-4.286 7.883-6.166 15.201-.7 2.728-1.385 5.15-1.52 5.381-.644 1.106-.019-5.544.972-10.34.623-3.02 2.092-7.194 4.022-11.43.826-1.813 1.433-3.367 1.348-3.452s-.448-.053-.807.07c-.484.167-.915.722-1.663 2.138-1.656 3.14-3.867 8.564-5.408 13.272-.796 2.434-1.49 4.233-1.54 3.998-.146-.67.615-5.212 1.531-9.14 1.369-5.867 1.763-7.986 1.763-9.473 0-1.199-.065-1.409-.432-1.409-.344 0-.687.762-1.694 3.767-1.417 4.228-2.182 6.062-2.345 5.624-.061-.162.005-1.238.147-2.391.56-4.563.198-8.435-.786-8.435-.194 0-.519-.064-.723-.142-.329-.126-.366.413-.326 4.723.046 5.026-.151 7.012-1.051 10.594-.987 3.928-1.071 3.61-1.056-3.979.014-6.505-.024-7.162-.522-9.114-.791-3.105-1.374-4.322-2.222-4.642-.679-.257-.71-.24-.71.386 0 .36.26 2.207.575 4.105.71 4.26 1 7.636.658 7.636-.136 0-.53-.942-.876-2.093-1.769-5.88-2.125-6.897-3.099-8.839-1.137-2.27-2.178-3.44-3.434-3.858-.437-.146-.759-.187-.715-.092.043.095.436.858.871 1.694 1.365 2.62 3.153 7.482 3.53 9.6.503 2.817.707 6.11.393 6.305-.153.094-.315-.243-.413-.863-.272-1.703-1.283-5.561-1.942-7.406-1.357-3.795-4.205-8.6-5.745-9.69-.547-.388-2.717-.875-2.717-.61 0 .035.536.73 1.19 1.542 2.591 3.215 4.58 8.194 5.598 14.01.279 1.595-.301.695-1.156-1.793-1.52-4.427-4.37-9.135-7.31-12.078-1.628-1.63-1.956-1.853-2.718-1.853-.476 0-.866.087-.866.194s.863 1.206 1.918 2.442c4.872 5.71 7.4 11.104 8.225 17.551l.273 2.13 1.962 1.218c6.372 3.957 10.387 9.455 9.76 13.37-.216 1.354-1.044 2.728-2.002 3.32-1.137.703-2.115 2.153-2.305 3.418-.138.92-.04 1.347.68 2.938 1.59 3.524 1.654 3.964 1.76 12.074.052 4.045.19 7.354.306 7.354.466 0 2.062-6.61 2.512-10.403.127-1.07.22-1.314.362-.957.454 1.126.144 6.612-.614 10.882-.276 1.558 1.465-1.79 2.327-4.475m-22.534 3.09c1.151-.563 1.395-1.377.844-2.819-.604-1.58-1.765-2.768-3.703-3.786-3.344-1.758-6.911-2.197-11.824-1.456-2.275.343-5.787 1.103-6.661 1.442-.243.094-.419.052-.419-.099 0-.38 2.669-1.677 5.023-2.443l2.033-.661-1.435-.675c-1.275-.599-1.702-.674-3.827-.674-2.27 0-2.468.041-3.905.82-3.288 1.783-4.55 4.813-2.72 6.538.95.896 2.173 1.13 5.936 1.13 4.03.003 6.311.36 11.451 1.796 2.105.587 4.257 1.173 4.784 1.3 1.246.302 3.368.104 4.423-.412m59.675-17.539c2.254-1.67 2.553-2.239.416-.793-1.56 1.055-4.851 4.228-5.32 5.128-.171.329.408-.176 1.287-1.12.879-.946 2.507-2.392 3.617-3.215m-23.44.161c3.188-.634 6.043-1.481 10.163-3.015 6.168-2.297 7.073-2.486 11.84-2.478 3.712.006 4.352.073 7.363.77 3.921.91 4.101.919 4.581.234.502-.716.464-3.124-.07-4.437-1.352-3.332-5.243-6.768-9.783-8.64-2.763-1.14-4.694-1.523-7.592-1.508-4.434.024-7.657 1.172-11.58 4.129-1.077.811-1.926 1.506-1.886 1.543s1.095-.135 2.345-.382c3.598-.712 6.638-.823 9.686-.356 4.69.72 4.677.966-.06 1.174-8.663.38-18.329 2.98-23.256 6.256-2.516 1.673-4.786 4.39-4.786 5.73 0 .432 1.159.999 2.728 1.336 1.45.312 8.107.082 10.307-.356m-53.14-5.213c-1.04-1.942-4.63-5.41-6.71-6.485-1.688-.872-4.176-1.834-4.703-1.819-.143.004.546.434 1.533.955 2.653 1.401 5.686 3.784 8.06 6.335 1.157 1.242 2.192 2.261 2.298 2.264.107.003-.108-.56-.478-1.25m31.013-4.504c2.098-.484 2.373-1.33 1.168-3.591-2.557-4.798-11.627-10.498-19.151-12.037-4.578-.936-12.62-.107-19.88 2.05-1.306.388-2.55.672-2.763.63-.617-.12 3.75-2.256 6.464-3.162 3.89-1.299 6.657-1.828 10.489-2.006l3.467-.16-2.152-.914c-4.017-1.703-5.261-1.954-9.686-1.951-3.7.003-4.065.044-5.85.67-6.588 2.31-11.635 6.378-13.871 11.183-.673 1.444-.8 3.214-.282 3.922.313.428.376.417 1.614-.277 3.84-2.153 8.493-3.267 13.725-3.285 5.157-.018 7.01.484 16.265 4.404 7.019 2.974 9.774 3.853 14.468 4.62 1.234.201 4.942.142 5.975-.096m-10.981-5.989c-1.241-.26-2.802-.7-3.468-.98-1.993-.83-5.593-3.296-4.815-3.296.057 0 1.898.71 4.091 1.577s5.08 1.847 6.413 2.179 2.528.698 2.653.815c.401.375-2.525.198-4.874-.295m29.993-3.876c1.165-4.02 5.13-11.062 9.054-16.084 1.294-1.655 2.293-3.069 2.222-3.14-.258-.258-4.606 4.398-6.19 6.627-2.128 2.995-4.596 7.948-5.182 10.403-.445 1.865-.828 4.597-.614 4.383.059-.059.378-1.044.71-2.189m8.735-10.531c1.866-1.99 4.485-4.118 7.534-6.122 1.446-.951 2.67-1.768 2.719-1.815.328-.319-2.093.578-3.653 1.353-4.24 2.107-7.933 5.687-9.42 9.133-.47 1.087-.32 1.07.618-.07a64 64 0 0 1 2.202-2.48m-41.328-8.804a17.4 17.4 0 0 0-3.679-3.62c-1.677-1.225-1.251-.63 1.59 2.218 1.57 1.574 2.897 2.82 2.948 2.77.05-.052-.336-.667-.86-1.368m61.302-1.89c.248-1.13-.048-2.182-1.045-3.72-2.55-3.934-7.919-7.32-16.179-10.205-3.962-1.383-5.968-2.24-11.608-4.961-7.584-3.658-10.867-4.688-16.793-5.266-7.73-.755-16.816 1.692-23.21 6.25-3.024 2.155-5.873 5.234-7.085 7.657-.536 1.071-.975 2.21-.975 2.529 0 .671.031.67 4.185-.29 3.59-.827 4.988-1.045 8.358-1.302 6.056-.463 11.534.483 17.233 2.974 8.498 3.716 11.33 4.636 15.9 5.167 3.513.409 7.57.026 13.995-1.32 1.645-.344 3.67-.601 4.746-.602 3.663-.004 8.733 1.423 11.04 3.106.525.385 1.028.703 1.116.709.088.005.233-.322.322-.727m-34.324-8.343c-3.563-.762-5.942-1.817-11.801-5.234-2.082-1.214-3.382-2.104-3.144-2.152.58-.118 3.606 1 6.808 2.517 3.585 1.697 7.199 3.173 10.137 4.14 1.615.532 2.257.842 2.033.984-.49.31-1.77.229-4.033-.255m8.387-2.318c-2.709-.417-5.136-1.322-7.497-2.793-1.583-.987-2.883-2.074-2.48-2.074.088 0 1.262.471 2.609 1.046 2.664 1.138 5.56 2.098 9.563 3.17 1.414.378 2.57.768 2.571.867.001.273-2.253.172-4.766-.216m60.416 22.458c-.355-.612-.947-3.962-.749-4.242.192-.272 2.017-2.28 8.517-9.377 1.005-1.097 1.141-1.41.5-1.152-.23.093-2.84.904-5.8 1.803-4.075 1.237-5.443 1.566-5.634 1.352-.295-.33-1.389-3.743-1.245-3.887.125-.125 19.87-5.85 19.924-5.778.166.225 1.066 3.224 1.066 3.553 0 .416-4.652 5.793-8.172 9.447-1.03 1.07-1.873 2.009-1.873 2.087s.296.03.657-.109c.904-.345 11.351-3.324 11.66-3.324.137 0 .53.923.874 2.051l.625 2.05-.51.224c-.677.295-19.076 5.481-19.447 5.481-.159 0-.335-.08-.393-.18m-159.685-1.35c-.675-.24-1.863-1.57-6.107-6.84-2.898-3.6-5.375-6.58-5.504-6.622-.129-.043-.874 1.763-1.657 4.012-.783 2.25-1.535 4.239-1.671 4.42-.21.278-.507.27-1.923-.05-.92-.208-1.755-.454-1.855-.546-.145-.134 2.658-8.404 4.526-13.353.431-1.142.646-1.202 2.289-.642.993.338 1.553.914 5.877 6.039 2.63 3.115 4.98 5.912 5.224 6.215l.443.552 1.392-4.199c.766-2.309 1.475-4.198 1.576-4.198.355 0 2.999.97 3.204 1.175.183.183-3.822 12.85-4.412 13.952-.257.481-.282.483-1.402.085m153.175-18.1c-.338-.667-1.631-2.986-2.874-5.153-1.242-2.167-2.258-4.016-2.256-4.108.002-.093 1.212-.854 2.69-1.691 1.479-.838 5.518-3.192 8.977-5.232 3.458-2.04 6.322-3.668 6.363-3.619.041.05 1.103 1.987 2.36 4.305 1.257 2.32 2.564 4.658 2.904 5.198s.62 1.035.62 1.102c0 .116-3.222 1.802-3.444 1.802-.059 0-.833-1.319-1.72-2.93-.888-1.612-1.737-3.113-1.887-3.337-.248-.37-.423-.318-1.932.576-.913.54-1.7 1.013-1.748 1.052s.586 1.286 1.41 2.773l1.576 2.851c.097.176-2.463 1.567-3.1 1.684-.341.063-.748-.48-1.822-2.43-.893-1.623-1.514-2.5-1.756-2.48-.475.038-3.515 1.729-3.514 1.953 0 .093.805 1.62 1.79 3.397.984 1.776 1.79 3.3 1.793 3.386.004.15-3.422 2.115-3.688 2.115-.07 0-.403-.547-.742-1.214M28.41 68.822a914 914 0 0 0-10.2-3.135l-5.775-1.736 1.043-1.92c.574-1.056 1.14-1.952 1.258-1.991.231-.077 4.765 1.352 10.266 3.235 1.875.642 3.408 1.132 3.408 1.09 0-.1-.343-.495-5.232-6.003-2.252-2.538-4.095-4.705-4.095-4.816 0-.247 1.58-2.61 2.121-3.173.367-.381.455-.378 1.466.046 2.675 1.121 12.064 4.759 12.125 4.697.038-.038-2.056-2.307-4.653-5.042-2.597-2.736-4.867-5.207-5.045-5.493-.294-.47-.22-.692.795-2.363.616-1.014 1.152-1.843 1.192-1.843s2.855 3.04 6.255 6.756 6.653 7.264 7.23 7.885l1.047 1.129-1.361 2.158c-.75 1.187-1.456 2.216-1.571 2.287s-2.016-.588-4.225-1.466c-5.671-2.253-8.201-3.179-8.199-3 .002.085 1.993 2.295 4.425 4.91s4.422 4.837 4.422 4.936c0 .184-2.159 4.32-2.232 4.276a523 523 0 0 0-4.465-1.424m140.15-14c-.723-.19-2.045-.843-2.937-1.45-1.752-1.189-6.415-5.99-6.222-6.406.111-.241 10.206-9.823 13.683-12.99l1.642-1.494 3.054 3.284c2.197 2.361 3.245 3.69 3.732 4.73 2.082 4.45.235 9.54-4.642 12.797-2.617 1.747-5.491 2.276-8.31 1.53m5.422-4.68c2.195-1.32 3.773-3.468 4.055-5.524.23-1.685-.25-2.889-1.816-4.547l-1.407-1.49-1.034.97c-.569.533-2.726 2.562-4.794 4.507l-3.76 3.537.76.944c2.12 2.64 5.23 3.264 7.996 1.603M42.206 49.025a946 946 0 0 1-4.001-10.444l-2.432-6.458 1.76-1.61c.967-.884 1.857-1.61 1.978-1.614.121-.003 2.435 1.376 5.142 3.063a1075 1075 0 0 0 9.167 5.642c2.334 1.416 4.315 2.689 4.401 2.829.157.253-2.203 2.525-3.181 3.063-.44.241-.665.178-1.555-.435-.572-.395-1.245-.945-1.495-1.224-.549-.61-.93-.64-1.369-.108-.18.219-1.416 1.274-2.747 2.345l-2.418 1.947.937 2.081c.515 1.144.875 2.18.8 2.303-.075.121-.875.758-1.777 1.414l-1.64 1.193zm4.815-9.294.794-.672-3.298-2.32c-1.814-1.275-3.332-2.284-3.374-2.242s.029.332.156.645c.128.313.685 1.806 1.238 3.32 1.449 3.961 1.228 3.723 2.56 2.76.622-.45 1.487-1.121 1.924-1.49m108.242 4.391c-1.9-1.18-2.033-1.333-1.905-2.166.063-.41.183-3.864.268-7.677l.153-6.932-1.968 2.986c-2.827 4.29-5.293 7.65-5.615 7.65-.208 0-2.643-1.558-3.181-2.036-.04-.036 2.224-3.709 5.032-8.163a2260 2260 0 0 0 5.646-8.981l.54-.884 1.483.956c.816.525 1.613 1.085 1.772 1.242.211.21.298 2.313.323 7.88.033 6.885.155 8.41.575 7.176.272-.802 5.991-9.712 6.389-9.955.358-.219 1.457.379 3.51 1.908.205.153-11.344 17.805-11.628 17.774-.097-.01-.724-.36-1.394-.778m-95.104-4.876c-.436-.483-1.06-1.798-5.59-11.786-1.76-3.88-3.2-7.171-3.2-7.312s1.178-.772 2.618-1.401l2.618-1.145 3.81 3.57c2.096 1.964 4.254 3.922 4.796 4.351l.986.781v-1.156c.001-.636-.22-3.176-.492-5.645-.27-2.47-.46-4.889-.419-5.377l.074-.888 2.392-.887c1.315-.488 2.453-.893 2.528-.901s.58.766 1.12 1.72c1.427 2.517 8.427 16.278 8.429 16.569 0 .136-.823.654-1.829 1.152-1.434.71-1.874.837-2.035.59-.113-.173-1.558-2.987-3.212-6.254s-3.058-5.889-3.122-5.825c-.063.063-.006 1.606.128 3.429s.313 4.939.399 6.925l.156 3.612-.866.536-.866.535-4.72-4.368a1079 1079 0 0 0-5.264-4.853c-.432-.384-.251.181.872 2.733a212 212 0 0 0 2.875 6.205c.802 1.644 1.459 3.126 1.46 3.292 0 .268-2.133 1.794-2.945 2.106-.172.066-.488-.073-.7-.308m77.788-5.255c-1.118-.476-3.701-1.435-5.74-2.132-2.04-.696-3.688-1.352-3.664-1.457.05-.225 4.871-13.017 6.448-17.113.596-1.545 1.174-2.81 1.286-2.81.413 0 5.702 1.943 8.366 3.074 1.878.798 2.778 1.305 2.836 1.6.122.616-.716 3.246-1.079 3.385-.167.064-1.824-.497-3.682-1.248-1.913-.772-3.468-1.274-3.586-1.156-.114.114-.532.993-.927 1.952l-.72 1.745 1.008.422c.555.232 1.896.784 2.981 1.227 1.086.443 1.974.92 1.976 1.06 0 .141-.234.929-.523 1.75-.65 1.853-.719 1.86-4.165.416-1.418-.594-2.65-.998-2.738-.897-.383.44-1.86 4.367-1.682 4.477.108.067 1.044.43 2.08.807 4.858 1.77 5.381 2.032 5.235 2.62-.232.932-1.282 3.161-1.485 3.152-.106-.005-1.107-.398-2.225-.874M122.58 29.2c-1.027-.196-1.853-.476-1.854-.628 0-.71 4.144-20.632 4.335-20.835.14-.148.797-.082 1.828.182.886.227 1.806.412 2.045.41.302 0 .397.126.311.417-.068.23-.83 4.024-1.694 8.43-2.07 10.566-2.5 12.443-2.838 12.407a65 65 0 0 1-2.133-.383m-35.918-2.517a3010 3010 0 0 0-8.327-15.438c-.524-.96-.913-1.781-.865-1.823s1.11-.3 2.36-.573c1.848-.404 2.33-.439 2.582-.19.171.169.77 1.326 1.332 2.573 1.643 3.65 5.844 11.572 6.035 11.382.047-.047.516-3.51 1.043-7.695s1.067-7.74 1.201-7.903c.135-.161.917-.358 1.739-.437.821-.08 1.826-.213 2.232-.296l.738-.152-.46 2.832c-.253 1.558-.966 6.492-1.585 10.964l-1.125 8.132-2.262.406c-3.584.644-3.292.756-4.638-1.782m27.525 1.274-1.637-.138-.556-1.315c-.464-1.1-2.107-4.163-3.13-5.838-.167-.275-.657-.475-1.349-.553l-1.086-.123-.086 3.716c-.047 2.043-.14 3.766-.205 3.829-.187.178-4.342-.254-4.562-.475-.193-.194.894-21.124 1.108-21.338.06-.06 2.234.009 4.83.153 5.666.314 6.575.567 8.326 2.317 1.906 1.907 2.519 4.557 1.645 7.12-.416 1.221-1.74 2.895-2.702 3.417a15 15 0 0 0-.95.557c-.248.167.135 1.119 1.733 4.311 1.129 2.254 2.052 4.206 2.052 4.34 0 .25-.64.253-3.431.02M112.1 15.63c1.293-.669 1.6-2.526.718-4.347-.573-1.184-.605-1.197-3.476-1.407l-2.178-.16-.152.92c-.083.505-.153 1.909-.154 3.118l-.003 2.198 1.016.105c1.648.17 3.42-.009 4.229-.427z" style="fill:#000;stroke-width:.903928"/></svg>