<?xml version="1.0" encoding="UTF-8" standalone="no"?>
<!-- Created with Inkscape (http://www.inkscape.org/) -->

<svg
   width="210mm"
   height="213mm"
   viewBox="0 0 210 213"
   version="1.1"
   id="svg1"
   xml:space="preserve"
   inkscape:version="1.3.2 (091e20e, 2023-11-25, custom)"
   sodipodi:docname="logo_full.svg"
   xmlns:inkscape="http://www.inkscape.org/namespaces/inkscape"
   xmlns:sodipodi="http://sodipodi.sourceforge.net/DTD/sodipodi-0.dtd"
   xmlns="http://www.w3.org/2000/svg"
   xmlns:svg="http://www.w3.org/2000/svg"><sodipodi:namedview
     id="namedview1"
     pagecolor="#ffffff"
     bordercolor="#000000"
     borderopacity="0.25"
     inkscape:showpageshadow="2"
     inkscape:pageopacity="0.0"
     inkscape:pagecheckerboard="0"
     inkscape:deskcolor="#d1d1d1"
     inkscape:document-units="mm"
     inkscape:zoom="0.52604868"
     inkscape:cx="397.30163"
     inkscape:cy="409.6579"
     inkscape:window-width="2560"
     inkscape:window-height="1377"
     inkscape:window-x="-8"
     inkscape:window-y="-8"
     inkscape:window-maximized="1"
     inkscape:current-layer="layer1" /><defs
     id="defs1" /><g
     inkscape:label="Layer 1"
     inkscape:groupmode="layer"
     id="layer1"><path
       style="fill:#000000;stroke-width:0.903928"
       d="m 106.2628,206.77303 c -0.2907,-1.26932 -1.79074,-19.41663 -1.61915,-19.58822 0.10403,-0.10403 0.97027,-0.26174 1.92498,-0.35047 2.13146,-0.1981 2.08611,-0.2332 5.13528,3.97447 1.19154,1.64426 2.98267,4.0605 3.98029,5.36943 2.1286,2.79281 2.18252,2.73997 1.58391,-1.55197 -0.20679,-1.48253 -0.44369,-3.95496 -0.52645,-5.49428 l -0.15049,-2.79876 1.87155,-0.27837 c 1.15651,-0.17201 1.9567,-0.1932 2.09442,-0.0555 0.18355,0.18354 1.02836,8.79183 1.75536,17.88646 l 0.15636,1.9559 -0.81125,0.14558 c -0.44618,0.0801 -1.39347,0.16853 -2.10509,0.19657 l -1.29384,0.051 -1.64039,-2.15248 c -4.83757,-6.34775 -7.45528,-9.58029 -7.26278,-8.96867 0.15383,0.48882 0.84804,9.09484 0.84804,10.51309 v 1.13993 l -1.35529,0.27218 c -2.00991,0.40365 -2.4423,0.35918 -2.58546,-0.26594 z m -14.235731,-0.34888 c -2.959658,-0.32284 -5.460581,-0.66297 -5.557607,-0.75585 -0.160273,-0.15342 2.084808,-19.83716 2.285466,-20.03781 0.112489,-0.1125 12.149772,1.30053 12.292182,1.44295 0.06,0.06 -0.0224,0.92508 -0.18328,1.92229 -0.22336,1.38462 -0.38363,1.81393 -0.6782,1.81667 -0.212146,0.002 -1.921528,-0.17525 -3.798623,-0.3938 -1.877096,-0.21856 -3.47645,-0.33384 -3.554119,-0.25616 -0.212138,0.21213 -0.681474,3.72041 -0.519399,3.88249 0.0773,0.0773 1.551221,0.25857 3.275367,0.40282 l 3.134813,0.26227 -0.01426,0.62041 c -0.02009,0.87419 -0.363188,2.87132 -0.520266,3.02839 -0.07223,0.0722 -1.49218,0.004 -3.15544,-0.153 -1.66326,-0.15638 -3.095261,-0.21318 -3.182224,-0.12621 -0.08696,0.087 -0.27924,1.06122 -0.427285,2.16502 l -0.26917,2.00692 1.332887,0.14884 c 0.733088,0.0819 2.429893,0.24152 3.770677,0.35478 1.340784,0.11326 2.565888,0.2851 2.722452,0.38186 0.289512,0.17893 0.177217,3.1861 -0.138023,3.69616 -0.188235,0.30457 -0.37826,0.29317 -6.81595,-0.40904 z m 39.512131,-2.53613 c -0.2346,-0.29903 -3.83948,-10.15161 -5.67562,-15.51219 -0.82961,-2.42202 -1.00975,-3.19747 -0.77662,-3.34308 0.40448,-0.25266 3.39653,-1.1597 3.82549,-1.1597 0.22625,0 0.76615,1.30928 1.62728,3.94621 0.70879,2.17042 1.35532,3.94621 1.43675,3.94621 0.0814,0 0.27727,-0.56502 0.43522,-1.25561 0.54222,-2.37068 2.47761,-8.66981 2.7506,-8.95241 0.2576,-0.26667 4.19914,-1.37826 4.34093,-1.22423 0.0364,0.0396 -0.5531,1.95536 -1.31008,4.25732 -1.8511,5.62921 -2.08143,6.5735 -1.71191,7.01873 0.16043,0.19331 2.31483,1.61285 4.78757,3.15453 2.47274,1.54169 4.74964,2.99447 5.05978,3.22841 l 0.56389,0.42534 -2.09704,1.03871 -2.09703,1.03871 -1.23987,-0.68927 c -0.68192,-0.37911 -2.50135,-1.47943 -4.04315,-2.44516 -2.69823,-1.69006 -4.0129,-2.29535 -4.0129,-1.84758 0,0.11653 0.41964,1.55694 0.93252,3.20091 1.3757,4.40954 1.42993,4.05494 -0.73634,4.81426 -1.38335,0.4849 -1.8917,0.57374 -2.05947,0.35989 z m -58.73019,-1.73899 c -3.231272,-0.78221 -6.263418,-3.08251 -7.592555,-5.75999 -0.513252,-1.03392 -0.573695,-1.47067 -0.573695,-4.14524 0,-2.93769 0.01489,-3.02067 0.857944,-4.78328 1.143374,-2.3905 2.93555,-4.32123 4.916193,-5.2963 4.287301,-2.11063 10.3861,-0.32829 12.394234,3.62214 0.695591,1.36838 0.925818,2.43675 0.723556,3.35764 l -0.159637,0.72682 -1.952054,-0.0692 -1.952052,-0.0692 -0.136307,-1.02131 c -0.176219,-1.32037 -0.829995,-2.1954 -2.140641,-2.86511 -3.65073,-1.86543 -7.965734,1.30787 -8.305505,6.10795 -0.148616,2.09957 0.256633,3.54894 1.255774,4.49125 1.083536,1.02191 3.31512,1.82683 4.803081,1.73245 1.101158,-0.0699 1.201046,-0.13172 1.606267,-0.99494 0.66487,-1.41633 0.507395,-1.65122 -1.450089,-2.16287 -1.264306,-0.33047 -1.72627,-0.55625 -1.712733,-0.83707 0.03529,-0.73217 0.850268,-2.74409 1.201233,-2.96547 0.326186,-0.20575 5.33143,1.20996 7.550882,2.13573 l 0.758648,0.31645 -1.639449,3.75631 c -1.805253,4.13621 -1.865069,4.20268 -4.302386,4.78187 -1.620826,0.38515 -2.360066,0.37468 -4.150709,-0.0588 z M 97.1691,179.55886 C 75.112091,177.10837 56.080596,165.47278 43.78762,146.92217 34.099589,132.30252 29.98506,113.77299 32.592012,96.503411 34.255644,85.482807 39.112469,73.432696 45.38253,64.769259 49.24658,59.430242 55.425285,53.006425 60.210051,49.353508 79.709197,34.466957 105.40417,30.42832 128.97795,38.544844 c 21.15381,7.283317 37.94037,24.455038 44.93441,45.965353 4.36515,13.425124 4.62791,28.553123 0.73322,42.213623 -7.3705,25.85182 -28.31026,45.75412 -54.17984,51.49551 -5.36582,1.19087 -7.37624,1.39449 -14.56714,1.4754 -3.7489,0.0422 -7.677176,-0.019 -8.7295,-0.13587 z m 13.39321,-3.11172 c 13.81926,-1.18474 26.43121,-6.23118 37.54879,-15.02443 2.36781,-1.87279 7.24642,-6.67901 9.49945,-9.35851 8.83095,-10.50253 14.29929,-23.04765 16.124,-36.99068 0.48945,-3.73999 0.55428,-11.95455 0.12427,-15.745039 -1.43584,-12.656414 -6.24358,-24.568578 -14.06484,-34.848532 -2.30748,-3.032847 -8.50797,-9.316244 -11.5633,-11.717894 -4.32327,-3.398317 -8.02092,-5.699364 -12.96175,-8.066094 -9.81042,-4.699347 -19.71717,-6.952647 -30.56469,-6.951967 -9.483517,5.9e-4 -17.916513,1.62475 -26.668282,5.136197 -11.710187,4.698447 -21.617859,12.461754 -29.46134,23.084888 -6.567237,8.894604 -10.973036,19.520398 -12.792309,30.852172 -0.487809,3.03843 -0.556406,4.297169 -0.553932,10.164489 0.0022,5.19208 0.09845,7.33059 0.428443,9.51851 1.694306,11.2335 5.810815,21.6895 11.976754,30.42114 5.116258,7.24518 11.385892,13.38516 18.563753,18.17989 12.946865,8.64833 28.734602,12.68587 44.364983,11.34586 z m -7.4141,-16.00288 c -1.38433,-0.36503 -2.2538,-0.42038 -5.022453,-0.31976 -6.518341,0.23692 -11.838556,-1.3349 -16.400899,-4.84555 -2.031181,-1.56295 -3.061944,-2.857 -5.275651,-6.62318 -2.295649,-3.90559 -4.473726,-6.33628 -7.324809,-8.17434 -2.098705,-1.35302 -3.028508,-1.757 -4.795881,-2.08371 -3.169412,-0.5859 -6.006538,-2.53868 -6.981679,-4.80546 -0.732596,-1.70296 -0.587866,-3.95891 0.359651,-5.60596 2.446535,-4.25278 8.696002,-6.59581 13.279409,-4.97869 0.751351,0.26509 0.951372,0.27189 0.951372,0.0324 0,-0.61243 -2.954204,-4.63185 -4.739322,-6.44822 -4.38565,-4.46244 -7.75158,-6.13795 -13.775342,-6.85717 -4.11228,-0.491 -5.833258,-1.29322 -6.982972,-3.25506 -0.544956,-0.9299 -0.650525,-1.3885 -0.648124,-2.81553 0.005,-2.96565 1.556306,-6.023519 4.819914,-9.500746 7.230291,-7.703547 16.789347,-10.628334 26.458891,-8.095647 2.45887,0.64404 9.498746,3.6457 11.562752,4.930127 0.961416,0.59828 1.812745,1.02307 1.891842,0.94398 0.23939,-0.23939 -0.403953,-2.09227 -1.255098,-3.614777 -1.047692,-1.87409 -2.67645,-3.69835 -4.606541,-5.159457 -2.03049,-1.53713 -3.383681,-2.16984 -6.866476,-3.21057 -5.09942,-1.523807 -7.115669,-2.763467 -8.167147,-5.021427 -2.60085,-5.585097 3.830214,-14.463521 14.265836,-19.694748 5.71664,-2.865667 9.646146,-3.839517 16.263167,-4.030497 3.77726,-0.10901 4.84732,-0.0555 7.31439,0.36595 4.97793,0.85032 7.50933,1.772277 15.89453,5.788897 5.27056,2.524667 8.7729,4.019907 11.4699,4.896797 0.72348,0.23523 2.55309,0.97971 4.0658,1.654407 10.32402,4.60469 15.64305,10.871124 14.00637,16.501111 -0.76378,2.62733 -3.18541,4.397267 -8.02727,5.867017 -6.68861,2.03033 -7.88283,2.45174 -9.3274,3.2914 -2.39266,1.390747 -5.65997,4.784977 -6.8795,7.146754 -0.84106,1.62881 -1.73042,4.169929 -1.73042,4.944239 0,0.11271 0.45741,-0.16595 1.01645,-0.61925 4.62153,-3.747329 11.924,-5.046779 18.33977,-3.263509 5.15387,1.43253 10.92515,5.400719 13.51033,9.289389 2.78259,4.18561 3.01966,7.99192 0.66041,10.60333 -1.1099,1.22854 -1.67604,1.49636 -4.13654,1.95694 -4.90835,0.91878 -8.42657,2.82421 -11.82976,6.40688 -2.4108,2.53795 -3.81368,4.79937 -7.01935,11.31502 -3.64957,7.41795 -5.01739,9.45943 -8.97361,13.3932 -3.95067,3.92826 -5.7537,5.29113 -9.34054,7.06034 -5.38119,2.65426 -11.89135,3.72484 -16.024,2.63512 z m -7.772842,-3.924 c 0,-0.0485 -0.721213,-0.50583 -1.602697,-1.01645 -2.151678,-1.24639 -7.930158,-6.78791 -7.078172,-6.78791 0.110429,0 0.951843,0.54907 1.869809,1.22016 0.917966,0.67109 2.368584,1.57084 3.223596,1.99944 1.560978,0.7825 4.028235,1.68548 4.175742,1.52827 0.04343,-0.0463 -1.228123,-1.2115 -2.825673,-2.58936 -3.914592,-3.37626 -5.361271,-4.85872 -6.540898,-6.70263 -2.009721,-3.14146 -2.174383,-3.23648 -1.73458,-1.00101 0.155506,0.79042 0.239798,1.56595 0.187316,1.7234 -0.05248,0.15745 -0.479694,-0.29046 -0.949361,-0.99534 -1.295485,-1.9443 -3.039877,-3.77177 -3.972097,-4.16128 -0.459474,-0.19198 -0.870614,-0.34906 -0.913645,-0.34906 -0.04304,0 0.349169,0.83409 0.871555,1.85353 0.893729,1.74411 1.557105,3.58745 1.361453,3.7831 -0.04816,0.0482 -1.212191,-1.02079 -2.586736,-2.37545 -1.40664,-1.38628 -3.158226,-2.84657 -4.006762,-3.34042 -0.829175,-0.48258 -1.564621,-0.87741 -1.634326,-0.87741 -0.0697,0 0.608711,0.80062 1.50759,1.77915 1.55399,1.6917 2.572587,3.20036 5.242106,7.76416 2.174204,3.71702 4.763659,5.89393 8.709181,7.32166 2.025112,0.73282 6.696599,1.58628 6.696599,1.22345 z m 21.721572,-4.06301 c 1.62772,-1.19771 4.22289,-3.55132 7.15752,-6.49126 2.53215,-2.53675 4.6029,-4.54323 4.60167,-4.45885 -0.0183,1.24882 -6.92542,8.98467 -10.87444,12.17913 -1.26725,1.02511 -0.94211,0.9701 1.36711,-0.23128 7.37399,-3.83637 12.98638,-11.20358 17.27502,-22.67641 2.25627,-6.03589 4.59042,-10.1537 6.77737,-11.95637 0.47997,-0.39563 0.7504,-0.71934 0.60095,-0.71934 -0.5008,0 -2.87653,2.11639 -4.08259,3.63693 -1.56758,1.97629 -2.66361,3.8062 -5.05569,8.44087 -2.02593,3.92524 -2.56762,4.833 -2.76576,4.63486 -0.0625,-0.0624 0.64439,-2.30681 1.5707,-4.98752 1.67258,-4.84031 2.88761,-7.58294 4.4263,-9.99119 0.44122,-0.69059 0.68474,-1.25562 0.54114,-1.25562 -0.14359,0 -0.87775,0.63023 -1.63146,1.4005 -1.61407,1.64953 -3.05811,4.41992 -4.56813,8.76398 -1.25235,3.60279 -2.74718,6.64056 -4.2953,8.72887 -1.96748,2.65399 -2.59634,2.86622 -1.0924,0.36868 1.29749,-2.15469 2.43194,-5.0959 4.20087,-10.89128 0.90338,-2.95966 1.715,-5.56954 1.80359,-5.79973 0.24289,-0.63108 -0.52634,-0.53209 -0.92925,0.11958 -0.18298,0.29597 -1.06823,2.24857 -1.96723,4.33911 -0.899,2.09054 -1.67585,3.67706 -1.72633,3.52559 -0.0505,-0.15146 0.0824,-1.79559 0.29544,-3.65361 0.21297,-1.85801 0.32471,-3.44072 0.2483,-3.51713 -0.29695,-0.29696 -0.96618,0.41062 -1.23057,1.30109 -0.15263,0.51409 -0.65199,2.66819 -1.10968,4.78688 -0.74059,3.42826 -1.67165,6.32273 -1.94567,6.04871 -0.0541,-0.0541 0.0148,-1.38313 0.15317,-2.95339 0.18067,-2.05063 0.1761,-3.59603 -0.0163,-5.48512 -0.28448,-2.79415 -0.49074,-3.29722 -1.17539,-2.86675 -0.33478,0.21049 -0.44346,0.7915 -0.58012,3.10153 -0.1712,2.89359 -0.78491,6.31486 -1.13278,6.31486 -0.10564,0 -0.2702,-1.15696 -0.36569,-2.57102 -0.0955,-1.41406 -0.29768,-3.3782 -0.44931,-4.36475 -0.26849,-1.7469 -0.29443,-1.79557 -0.99319,-1.86429 l -0.71749,-0.0706 v 3.29928 c 0,3.53672 -0.25552,6.04967 -0.61512,6.04967 -0.12207,0 -0.2223,-0.4574 -0.22272,-1.01645 -9e-4,-1.60378 -0.70135,-5.19074 -1.20644,-6.1808 -0.4972,-0.97457 -1.16596,-1.60322 -0.84488,-0.7942 0.40999,1.03309 0.4281,4.07527 0.0366,6.15275 -0.81635,4.33212 -2.41643,7.74993 -6.47061,13.82144 -3.23052,4.83802 -3.94309,6.23434 -4.12092,8.07505 l -0.13018,1.34742 0.74929,-1.01583 c 0.41211,-0.55871 2.07958,-2.46041 3.70551,-4.226 2.89703,-3.14589 5.70679,-6.64889 6.19823,-7.72749 0.1362,-0.29891 0.33797,-0.54347 0.4484,-0.54347 0.27955,0 0.2701,0.0447 -0.36583,1.72848 -0.73451,1.94481 -1.66264,3.50683 -4.08887,6.88144 -2.01784,2.80656 -3.28736,4.91099 -3.60636,5.97807 -0.19476,0.65142 0.35967,0.22827 4.57379,-3.49078 1.98142,-1.74866 3.15817,-2.62285 3.31124,-2.4599 0.0476,0.0507 -1.02917,1.4913 -2.39287,3.20133 -1.3637,1.71002 -2.48227,3.18429 -2.48571,3.27615 -0.0113,0.30289 2.61656,-1.33132 5.213,-3.24185 z m -16.68235,-3.08365 c -0.11581,-0.29596 -0.749485,-1.79028 -1.408167,-3.32069 -2.554319,-5.93483 -4.240939,-12.98476 -3.417423,-14.28455 0.137702,-0.21734 0.297521,0.19818 0.480609,1.24954 0.150867,0.86634 0.656237,2.68104 1.123045,4.03267 0.841093,2.43536 3.824336,8.85827 4.862756,10.46951 l 0.53948,0.83708 -0.14107,-1.5222 c -0.0881,-0.95059 -0.81028,-3.51018 -1.92314,-6.81618 -2.400729,-7.13194 -3.002833,-10.29607 -3.002833,-15.78025 0,-2.98232 0.517905,-7.22366 1.082003,-8.86097 0.440809,-1.27946 0.284874,-1.34954 -0.468783,-0.21069 -0.952409,1.43919 -1.468739,3.18932 -2.189172,7.42033 -0.363966,2.13753 -0.739016,3.88642 -0.833443,3.88642 -0.09443,0 -0.251353,-1.58745 -0.348726,-3.52767 -0.136549,-2.72082 -0.08952,-4.1515 0.205622,-6.25515 0.210465,-1.50011 0.326405,-2.81851 0.257645,-2.92976 -0.284302,-0.46001 -0.833944,-0.14469 -1.283365,0.73625 -0.794585,1.55751 -1.204383,4.70689 -1.212339,9.31706 -0.0082,4.74009 -0.18254,4.90024 -1.00394,0.9221 -0.411262,-1.99179 -0.509031,-3.34706 -0.524429,-7.26969 l -0.01893,-4.82148 -0.824516,-0.1338 c -0.453485,-0.0736 -0.883981,-0.0745 -0.956658,-0.002 -0.07268,0.0725 -0.201721,2.03333 -0.286762,4.35737 -0.178682,4.88315 -0.144057,4.56651 -0.448988,4.10598 -0.418425,-0.63193 -1.389631,-4.10486 -1.901251,-6.79868 -0.501871,-2.64249 -0.753138,-3.24621 -1.351051,-3.24621 -0.442578,0 -0.417675,2.16507 0.106599,9.26761 0.225749,3.05831 0.331935,5.56057 0.23597,5.56057 -0.322647,0 -1.152422,-3.15383 -2.134104,-8.11137 -1.262838,-6.37739 -2.434317,-9.25501 -3.945292,-9.6912 -0.496149,-0.14323 -0.499053,-0.12477 -0.175532,1.11542 0.644241,2.46963 1.995312,9.42898 1.988161,10.241 -0.0099,1.12409 -0.193352,0.75307 -1.542892,-3.12042 -2.104224,-6.03961 -4.201679,-9.67456 -6.021104,-10.43477 -1.243701,-0.51965 -1.311185,-0.40528 -0.536304,0.90893 2.17126,3.68246 3.888652,7.99606 4.629345,11.62759 0.682134,3.34443 0.360059,3.32118 -1.011152,-0.073 -2.62792,-6.50491 -6.999246,-12.82523 -9.333298,-13.49463 -1.182583,-0.33916 -0.996125,0.20875 0.960296,2.82184 3.517711,4.69843 5.026848,7.43226 7.226304,13.09058 0.60887,1.56638 1.33135,3.3465 1.605511,3.95582 l 0.498474,1.10786 1.706255,0.16239 c 4.28589,0.4079 7.143615,1.64327 9.777458,4.2267 1.858462,1.8229 2.582117,3.22894 2.74772,5.33877 0.103174,1.31446 0.03336,1.60332 -0.748657,3.09798 -0.474343,0.9066 -0.862441,1.80566 -0.862441,1.99792 0,0.66535 1.69732,3.57582 2.938753,5.03922 1.100272,1.29699 3.757847,3.63799 3.757847,3.3102 0,-0.0675 -0.373097,-0.74934 -0.829104,-1.51512 -1.087967,-1.82705 -2.878064,-6.21395 -2.360286,-5.78423 0.212002,0.17594 1.067081,1.34701 1.900174,2.60236 1.364693,2.0564 4.266485,5.73575 4.523605,5.73575 0.0561,0 0.007,-0.24216 -0.10849,-0.53813 z m 9.84017,-15.41659 c 0.43223,-1.34624 0.86659,-2.45069 0.96525,-2.45433 0.0987,-0.004 0.18815,0.88129 0.19888,1.9665 0.0183,1.85553 0.0385,1.92985 0.33845,1.24725 0.48229,-1.09763 1.07703,-4.23351 1.07703,-5.67889 0,-1.77635 -0.59322,-3.3619 -1.58293,-4.23088 -0.45395,-0.39857 -0.9748,-0.72468 -1.15744,-0.72468 -0.63032,0 -1.74177,-1.18865 -2.27885,-2.43713 -0.6727,-1.56374 -0.56647,-3.38902 0.30846,-5.30013 0.81563,-1.78158 3.75724,-4.80507 6.33616,-6.51254 1.1449,-0.75802 2.15632,-1.44041 2.2476,-1.51642 0.0913,-0.076 0.38725,-1.64494 0.65771,-3.4865 0.63183,-4.30212 1.21932,-6.715469 2.3096,-9.487709 1.6532,-4.203537 3.32081,-7.228214 6.29461,-11.416991 1.06529,-1.50053 1.89477,-2.77035 1.8433,-2.82182 -0.55726,-0.55727 -3.47216,2.09464 -5.35802,4.874617 -2.70665,3.989887 -4.28542,7.882157 -6.16568,15.200813 -0.7007,2.72736 -1.38465,5.14889 -1.51991,5.3812 -0.64357,1.10533 -0.0186,-5.54446 0.97174,-10.340029 0.62359,-3.019557 2.09266,-7.194104 4.02225,-11.429754 0.82638,-1.813997 1.43302,-3.367677 1.34809,-3.452617 -0.085,-0.0849 -0.44831,-0.0532 -0.80748,0.0706 -0.4835,0.16659 -0.91501,0.72142 -1.66219,2.13721 -1.65679,3.139407 -3.8673,8.564404 -5.40811,13.272501 -0.7964,2.4335 -1.48959,4.232659 -1.54042,3.998139 -0.14542,-0.67095 0.61553,-5.212489 1.53147,-9.140166 1.3682,-5.867057 1.76252,-7.986394 1.76252,-9.473304 0,-1.19849 -0.0645,-1.40866 -0.43169,-1.40866 -0.34443,0 -0.68695,0.76146 -1.6944,3.766827 -1.41712,4.22754 -2.18193,6.061677 -2.3452,5.624227 -0.0606,-0.1623 0.005,-1.238537 0.14701,-2.391647 0.55954,-4.562257 0.1987,-8.434397 -0.78599,-8.434397 -0.19327,0 -0.51836,-0.0641 -0.72243,-0.14238 -0.32867,-0.126117 -0.36596,0.4134 -0.32652,4.7235 0.046,5.025457 -0.15106,7.011784 -1.05087,10.593404 -0.98695,3.928507 -1.07125,3.610767 -1.05557,-3.97871 0.0135,-6.505434 -0.0241,-7.161994 -0.52182,-9.114354 -0.79147,-3.104927 -1.37411,-4.321997 -2.22232,-4.642157 -0.67861,-0.25615 -0.70926,-0.23945 -0.70926,0.38641 0,0.35977 0.25852,2.206927 0.5745,4.104807 0.7093,4.260397 0.99986,7.636047 0.65726,7.636047 -0.13538,0 -0.52941,-0.94171 -0.8756,-2.09268 -1.76864,-5.880117 -2.12503,-6.896817 -3.0985,-8.839184 -1.137796,-2.27026 -2.178614,-3.4396 -3.433999,-3.85802 -0.437328,-0.14576 -0.759427,-0.1871 -0.715775,-0.0919 0.04365,0.0952 0.435837,0.85752 0.871523,1.69397 1.364658,2.61994 3.152531,7.482017 3.530211,9.600314 0.50214,2.81636 0.70705,6.109707 0.39225,6.304267 -0.15288,0.0945 -0.3145,-0.24285 -0.41313,-0.86226 -0.27122,-1.703387 -1.282946,-5.561827 -1.941955,-7.406044 -1.35621,-3.79531 -4.204708,-8.600487 -5.744822,-9.691024 -0.54638,-0.38689 -2.716835,-0.87391 -2.716835,-0.60962 0,0.0357 0.535863,0.72991 1.190806,1.542677 2.590691,3.21502 4.579462,8.193317 5.597035,14.010514 0.278837,1.594047 -0.300838,0.69412 -1.155407,-1.79373 -1.520764,-4.427297 -4.37045,-9.135604 -7.310036,-12.077794 -1.628312,-1.629747 -1.956439,-1.853517 -2.717947,-1.853517 -0.476335,0 -0.866065,0.0873 -0.866065,0.19407 0,0.10673 0.863143,1.205787 1.918096,2.442337 4.871243,5.709797 7.398776,11.103484 8.224527,17.550951 l 0.272857,2.130457 1.961793,1.21784 c 6.372773,3.956069 10.387373,9.454579 9.761363,13.369429 -0.2166,1.35457 -1.04523,2.72814 -2.0028,3.31996 -1.13745,0.70298 -2.11525,2.15306 -2.30498,3.41832 -0.13794,0.91984 -0.0393,1.34657 0.67894,2.93732 1.59127,3.5243 1.65539,3.96415 1.76042,12.07434 0.0524,4.04487 0.19032,7.3543 0.30655,7.3543 0.46585,0 2.06177,-6.6102 2.51176,-10.40364 0.12683,-1.06915 0.21928,-1.31304 0.36267,-0.95666 0.45307,1.12611 0.14348,6.612 -0.61411,10.88197 -0.27647,1.55832 1.46458,-1.79066 2.32637,-4.47482 z m -22.533886,3.09063 c 1.151277,-0.56409 1.394781,-1.37737 0.844114,-2.81927 -0.603819,-1.58108 -1.76465,-2.7682 -3.702803,-3.78667 -3.344158,-1.75731 -6.911165,-2.1965 -11.824598,-1.45593 -2.274389,0.34281 -5.786232,1.10335 -6.660886,1.44252 -0.242259,0.0939 -0.418538,0.0522 -0.418538,-0.099 0,-0.37939 2.668772,-1.67767 5.022449,-2.44329 l 2.032896,-0.66126 -1.434985,-0.67451 c -1.274914,-0.59927 -1.701771,-0.67451 -3.826628,-0.67451 -2.270467,0 -2.468298,0.0416 -3.904599,0.8203 -3.288366,1.78289 -4.549421,4.81335 -2.720589,6.5379 0.950493,0.8963 2.173734,1.12932 5.936158,1.1308 4.029914,0.002 6.311297,0.35917 11.451422,1.79487 2.104645,0.58786 4.257124,1.17319 4.783285,1.30074 1.246259,0.30212 3.368553,0.10411 4.423302,-0.41268 z m 59.675416,-17.53952 c 2.25406,-1.66945 2.55265,-2.23917 0.41591,-0.79359 -1.5604,1.05567 -4.8516,4.22809 -5.32032,5.12829 -0.17122,0.32885 0.40785,-0.1754 1.28681,-1.12054 0.87897,-0.94515 2.50689,-2.39152 3.6176,-3.21416 z m -23.44079,0.16112 c 3.18833,-0.63449 6.04338,-1.48161 10.1638,-3.01568 6.16791,-2.29639 7.07258,-2.48573 11.83932,-2.47798 3.71251,0.006 4.35234,0.073 7.3637,0.77113 3.92112,0.90899 4.10104,0.91814 4.58095,0.23298 0.50144,-0.71592 0.46379,-3.12357 -0.0694,-4.43663 -1.35293,-3.33186 -5.24374,-6.76787 -9.78354,-8.63994 -2.76329,-1.13948 -4.69415,-1.52293 -7.5925,-1.50776 -4.43381,0.0232 -7.65651,1.17213 -11.57968,4.12833 -1.07703,0.81156 -1.92567,1.506 -1.88587,1.54319 0.0398,0.0372 1.09478,-0.13463 2.34441,-0.38182 3.5984,-0.71181 6.63845,-0.82343 9.68615,-0.35562 4.68956,0.71981 4.67704,0.9658 -0.0597,1.17369 -8.66288,0.38021 -18.32904,2.98047 -23.25627,6.25609 -2.51586,1.67253 -4.78574,4.39034 -4.78574,5.73012 0,0.43134 1.15844,0.99853 2.72808,1.33573 1.45068,0.31164 8.10716,0.0818 10.30638,-0.35583 z m -53.139334,-5.21362 c -1.04031,-1.94197 -4.629469,-5.41031 -6.710648,-6.48475 -1.688006,-0.87145 -4.175807,-1.83375 -4.702023,-1.81876 -0.143833,0.004 0.545665,0.43371 1.532218,0.9547 2.653353,1.40121 5.685938,3.78455 8.060692,6.33497 1.157084,1.24268 2.191225,2.26168 2.29809,2.26444 0.106865,0.003 -0.108383,-0.56001 -0.478329,-1.2506 z m 31.013104,-4.50402 c 2.09822,-0.48345 2.3732,-1.3292 1.16763,-3.5911 -2.55678,-4.79701 -11.627257,-10.497689 -19.151125,-12.036246 -4.577972,-0.93615 -12.62031,-0.10703 -19.879255,2.049427 -1.306664,0.38818 -2.550046,0.67193 -2.763071,0.63056 -0.617277,-0.1199 3.749416,-2.256617 6.463244,-3.162607 3.890043,-1.29866 6.657531,-1.82783 10.488848,-2.00555 l 3.467881,-0.16086 -2.152478,-0.91299 c -4.016452,-1.703607 -5.26134,-1.954387 -9.686153,-1.951287 -3.700692,0.003 -4.064622,0.0443 -5.849427,0.67005 -6.588677,2.310027 -11.635406,6.378454 -13.871798,11.182763 -0.672114,1.44386 -0.799302,3.21418 -0.281771,3.92195 0.313264,0.42841 0.376181,0.41763 1.614359,-0.27666 3.839566,-2.153 8.492919,-3.26668 13.724934,-3.28478 5.156931,-0.0178 7.009397,0.48376 16.264643,4.40409 7.019223,2.97319 9.774505,3.85289 14.467966,4.61932 1.234365,0.20156 4.942533,0.14194 5.975573,-0.0961 z m -10.981668,-5.98844 c -1.240639,-0.26036 -2.801185,-0.70107 -3.467882,-0.97936 -1.992313,-0.83162 -5.592735,-3.296569 -4.815122,-3.296569 0.05725,0 1.898434,0.709359 4.091508,1.576359 2.193073,0.867 5.07898,1.84755 6.413126,2.179 1.334145,0.33144 2.527961,0.69832 2.652925,0.81527 0.401015,0.37532 -2.524731,0.19844 -4.874555,-0.2947 z m 29.993458,-3.87574 c 1.16504,-4.020299 5.12906,-11.062473 9.054,-16.08462 1.29365,-1.65529 2.29331,-3.0684 2.22147,-3.14024 -0.25715,-0.25714 -4.60518,4.398537 -6.18938,6.627297 -2.12865,2.994717 -4.59617,7.948264 -5.18238,10.403634 -0.44514,1.86447 -0.82779,4.596579 -0.61382,4.382599 0.0588,-0.0588 0.3783,-1.04365 0.71011,-2.18867 z m 8.7348,-10.531723 c 1.86573,-1.98941 4.48472,-4.11749 7.53367,-6.121577 1.44695,-0.95108 2.67051,-1.76777 2.71904,-1.81487 0.32876,-0.31913 -2.09255,0.57767 -3.65235,1.35276 -4.24008,2.106947 -7.93338,5.687447 -9.42073,9.133004 -0.46909,1.08671 -0.32039,1.0697 0.61885,-0.0708 0.48737,-0.59177 1.47805,-1.70713 2.20152,-2.478557 z M 88.247546,80.75205 c -1.019083,-1.36384 -2.258623,-2.583877 -3.678404,-3.620547 -1.677321,-1.22471 -1.251333,-0.63041 1.590316,2.218667 1.569925,1.57402 2.89621,2.82006 2.947299,2.76897 0.05109,-0.0511 -0.335556,-0.66628 -0.859211,-1.36709 z m 61.302644,-1.890797 c 0.24797,-1.12902 -0.0477,-2.18162 -1.04476,-3.71953 -2.55064,-3.934137 -7.91894,-7.320024 -16.17918,-10.204514 -3.96179,-1.38347 -5.96818,-2.240997 -11.60873,-4.961557 -7.58378,-3.657827 -10.86682,-4.687337 -16.79203,-5.265727 -7.73129,-0.75469 -16.816571,1.69181 -23.211438,6.250407 -3.023194,2.15509 -5.871703,5.233597 -7.084308,7.656304 -0.53624,1.07137 -0.974982,2.20943 -0.974982,2.52901 0,0.67181 0.0314,0.66964 4.185375,-0.28872 3.589276,-0.82808 4.987625,-1.04616 8.357694,-1.30339 6.055853,-0.46223 11.534346,0.48348 17.232879,2.97479 8.49846,3.715377 11.33047,4.635657 15.90055,5.166957 3.51272,0.40837 7.5693,0.0259 13.99499,-1.3197 1.64494,-0.34446 3.67063,-0.60179 4.74572,-0.60288 3.66276,-0.004 8.73305,1.42324 11.03913,3.10675 0.52616,0.384117 1.02882,0.702807 1.11702,0.708187 0.0882,0.005 0.23314,-0.32149 0.32207,-0.726387 z m -34.32418,-8.342177 c -3.56343,-0.76214 -5.94216,-1.81717 -11.80102,-5.234097 -2.08221,-1.21435 -3.38219,-2.104217 -3.14432,-2.152347 0.58023,-0.11742 3.60603,1.001237 6.80852,2.517167 3.58493,1.69695 7.19847,3.172827 10.13721,4.140337 1.61438,0.5315 2.25614,0.84194 2.0329,0.98338 -0.48968,0.31023 -1.77112,0.22939 -4.03329,-0.25444 z m 8.38659,-2.317867 c -2.70833,-0.41743 -5.13588,-1.32192 -7.49623,-2.79306 -1.58334,-0.98686 -2.88313,-2.07387 -2.4798,-2.07387 0.0873,0 1.26099,0.47069 2.60808,1.04599 2.66399,1.1377 5.56003,2.09732 9.56354,3.16892 1.41359,0.37838 2.57056,0.76867 2.57102,0.86733 9e-4,0.273877 -2.25349,0.172027 -4.76661,-0.21531 z m 60.41669,22.457565 c -0.35568,-0.61198 -0.94716,-3.961667 -0.74903,-4.241867 0.19201,-0.27154 2.01647,-2.280157 8.51676,-9.376434 1.00534,-1.09753 1.14112,-1.41063 0.49967,-1.15224 -0.23019,0.0927 -2.84007,0.90397 -5.79973,1.80277 -4.07474,1.23744 -5.44267,1.565617 -5.63437,1.35177 -0.295,-0.32906 -1.38824,-3.74317 -1.2446,-3.8868 0.12451,-0.12452 19.87046,-5.850447 19.92425,-5.777637 0.16624,0.22503 1.06541,3.22322 1.06541,3.55252 0,0.41597 -4.65134,5.793287 -8.17205,9.447534 -1.03007,1.06914 -1.87285,2.00819 -1.87285,2.086767 0,0.0786 0.29597,0.0297 0.6577,-0.108667 0.90391,-0.34571 11.35055,-3.32407 11.65926,-3.32407 0.13689,0 0.53014,0.92282 0.8739,2.05071 l 0.625,2.050697 -0.51029,0.22284 c -0.676,0.29521 -19.07504,5.481487 -19.44634,5.481487 -0.15863,0 -0.33535,-0.0807 -0.39269,-0.17938 z M 24.343579,89.308617 c -0.674195,-0.23948 -1.86243,-1.57052 -6.106594,-6.840487 -2.898236,-3.598727 -5.374906,-6.578277 -5.50371,-6.621207 -0.128805,-0.0429 -0.874544,1.76264 -1.657196,4.012387 -0.782653,2.24975 -1.5347007,4.23845 -1.6712183,4.41935 C 9.1949849,84.556757 8.8980744,84.549107 7.4824979,84.22916 6.5617152,84.02102 5.726662,83.77529 5.6268231,83.68309 5.4815249,83.54892 8.284828,75.279093 10.1533,70.329866 c 0.431064,-1.14182 0.645586,-1.20202 2.288431,-0.64225 0.993558,0.33854 1.553765,0.91411 5.87772,6.038897 2.628719,3.11558 4.979174,5.912707 5.223232,6.215837 l 0.443743,0.55116 1.391807,-4.198407 c 0.765494,-2.30912 1.474748,-4.19841 1.57612,-4.19841 0.354833,0 2.998549,0.96954 3.204037,1.17503 0.18289,0.18289 -3.822717,12.849634 -4.412077,13.952104 -0.257255,0.48123 -0.282431,0.48275 -1.402734,0.0848 z M 177.51939,71.209116 c -0.33818,-0.66737 -1.63148,-2.986307 -2.874,-5.153207 -1.24252,-2.16689 -2.2579,-4.015487 -2.2564,-4.107997 0.002,-0.0925 1.21225,-0.85343 2.69059,-1.69093 1.47834,-0.8375 5.51757,-3.191697 8.97607,-5.231547 3.45851,-2.03986 6.32197,-3.668547 6.36326,-3.619307 0.0413,0.0492 1.10327,1.986637 2.35999,4.305347 1.25671,2.318707 2.56367,4.657387 2.90436,5.197067 0.34069,0.53969 0.61943,1.03584 0.61943,1.10257 0,0.11607 -3.22166,1.801487 -3.44353,1.801487 -0.0589,0 -0.83331,-1.318387 -1.72081,-2.929757 -0.88749,-1.61137 -1.7363,-3.112847 -1.88623,-3.336627 -0.24791,-0.36998 -0.42308,-0.31782 -1.93243,0.575397 -0.9129,0.54025 -1.69917,1.01382 -1.74728,1.05238 -0.0481,0.0386 0.5858,1.28638 1.40868,2.77291 0.82287,1.486527 1.53269,2.769667 1.57737,2.851427 0.0962,0.17601 -2.46358,1.5663 -3.09966,1.68353 -0.34187,0.063 -0.74915,-0.48007 -1.82246,-2.43009 -0.89296,-1.622357 -1.51477,-2.500367 -1.75675,-2.480547 -0.47436,0.0389 -3.51428,1.729327 -3.51405,1.954127 1e-4,0.0922 0.80547,1.6206 1.78973,3.39639 0.98425,1.775787 1.79135,3.299707 1.79356,3.386467 0.004,0.15014 -3.42206,2.11431 -3.68775,2.11431 -0.0698,0 -0.40351,-0.54603 -0.74169,-1.2134 z M 28.409372,68.822416 C 25.975875,68.052619 21.385994,66.641559 18.209637,65.686719 l -5.775197,-1.73606 1.042941,-1.919627 c 0.573618,-1.0558 1.139667,-1.95187 1.257886,-1.99128 0.231194,-0.0771 4.764751,1.35176 10.266014,3.2355 1.87445,0.641847 3.408091,1.132017 3.408091,1.089267 0,-0.10043 -0.343866,-0.49491 -5.232424,-6.002587 -2.252241,-2.537477 -4.094983,-4.704787 -4.094983,-4.816237 0,-0.24668 1.580012,-2.609757 2.121473,-3.172897 0.366185,-0.38085 0.454829,-0.37807 1.465991,0.046 2.674126,1.12145 12.063115,4.758727 12.124736,4.697107 0.03776,-0.0378 -2.056024,-2.30674 -4.652848,-5.042177 -2.596824,-2.735437 -4.867338,-5.207177 -5.045585,-5.492757 -0.293665,-0.47049 -0.219019,-0.6923 0.795195,-2.36284 0.615606,-1.013987 1.152077,-1.843617 1.192158,-1.843617 0.04008,0 2.854734,3.040377 6.254786,6.756397 3.400051,3.716017 6.653405,7.264344 7.229676,7.885174 l 1.047765,1.12879 -1.361808,2.158247 c -0.748994,1.18703 -1.455764,2.21631 -1.570599,2.28728 -0.114835,0.071 -2.015956,-0.58888 -4.224714,-1.46635 -5.671251,-2.252997 -8.201684,-3.178827 -8.198847,-2.999767 0.0014,0.0851 1.99239,2.294567 4.424539,4.910017 2.432148,2.615447 4.422089,4.836497 4.422089,4.935657 0,0.18394 -2.15862,4.319757 -2.231833,4.276097 -0.02213,-0.0132 -2.031271,-0.65383 -4.464767,-1.42363 z M 168.55964,54.822755 c -0.72347,-0.19165 -2.04551,-0.84425 -2.93787,-1.45022 -1.75161,-1.189477 -6.41483,-5.990874 -6.22219,-6.406574 0.11177,-0.2412 10.20633,-9.823307 13.68369,-12.989034 l 1.64184,-1.49471 3.05412,3.28338 c 2.19674,2.361627 3.24436,3.689867 3.73169,4.731287 2.08182,4.448747 0.23518,9.538704 -4.64234,12.795781 -2.61687,1.74748 -5.49063,2.27668 -8.30894,1.53009 z m 5.42089,-4.680767 c 2.19595,-1.3191 3.77339,-3.467887 4.05522,-5.524027 0.23095,-1.68494 -0.24985,-2.888867 -1.816,-4.547237 l -1.4071,-1.48995 -1.03382,0.97012 c -0.5686,0.53356 -2.72569,2.5618 -4.79354,4.507197 l -3.75973,3.537097 0.75877,0.94418 c 2.12156,2.63999 5.23157,3.26331 7.9962,1.60262 z M 42.206203,49.024928 C 41.342685,46.832231 39.541924,42.132361 38.204514,38.580774 l -2.431655,-6.457437 1.759244,-1.609517 c 0.967583,-0.88523 1.858248,-1.61169 1.979254,-1.61436 0.121006,-0.003 2.434921,1.37565 5.142032,3.062907 2.707111,1.68727 6.831947,4.22606 9.166302,5.641777 2.334355,1.4157 4.315028,2.68848 4.401496,2.82839 0.156662,0.25349 -2.203107,2.525687 -3.181144,3.063097 -0.439884,0.24171 -0.665266,0.17868 -1.554567,-0.43472 -0.572052,-0.39458 -1.245117,-0.945187 -1.4957,-1.223577 -0.548718,-0.60962 -0.93013,-0.63981 -1.368634,-0.10834 -0.180531,0.2188 -1.416546,1.274007 -2.746699,2.344907 l -2.418459,1.94709 0.936972,2.080967 c 0.515334,1.14452 0.875336,2.18069 0.800003,2.30258 -0.07533,0.12189 -0.874914,0.75835 -1.776845,1.41436 l -1.639877,1.192747 z m 4.815089,-9.293724 0.794181,-0.6721 -3.29805,-2.319277 c -1.813926,-1.2756 -3.332295,-2.28503 -3.374151,-2.24318 -0.04186,0.0419 0.02843,0.33217 0.156186,0.64513 0.127759,0.31297 0.684757,1.806707 1.237773,3.319417 1.448364,3.961837 1.22795,3.724167 2.559773,2.76013 0.621558,-0.44991 1.487488,-1.12047 1.924288,-1.49012 z m 108.241358,4.391137 c -1.89914,-1.18117 -2.03252,-1.3329 -1.9045,-2.166597 0.0628,-0.40929 0.18332,-3.86377 0.26774,-7.676627 l 0.15348,-6.932457 -1.96811,2.98625 c -2.82762,4.290427 -5.29358,7.649954 -5.61521,7.649954 -0.20826,0 -2.64331,-1.557937 -3.1813,-2.035387 -0.0407,-0.0361 2.22388,-3.70948 5.03228,-8.163127 2.80839,-4.453657 5.34914,-8.495414 5.64609,-8.981684 l 0.53993,-0.88413 1.48315,0.95606 c 0.81572,0.52583 1.61291,1.08512 1.77151,1.24287 0.21144,0.2103 0.29782,2.312747 0.32376,7.880294 0.0321,6.884447 0.15416,8.410037 0.57422,7.174927 0.27252,-0.80134 5.99137,-9.711384 6.38916,-9.954434 0.35812,-0.21881 1.45679,0.37846 3.5098,1.908027 0.20512,0.15282 -11.34333,17.804341 -11.62815,17.773341 -0.0961,-0.0105 -0.7233,-0.36023 -1.39385,-0.77728 z M 60.159366,39.245794 c -0.436609,-0.48245 -1.060473,-1.79785 -5.589885,-11.786154 -1.75967,-3.880447 -3.199612,-7.170864 -3.199869,-7.312044 -2.59e-4,-0.14118 1.177508,-0.77163 2.617259,-1.401 l 2.61773,-1.14431 3.810444,3.569997 c 2.095744,1.9635 4.254107,3.92139 4.796363,4.35086 l 0.985919,0.780867 4.34e-4,-1.156127 c 2.38e-4,-0.63587 -0.221377,-3.17626 -0.492477,-5.645297 -0.271101,-2.46905 -0.459639,-4.888619 -0.418972,-5.376827 l 0.07394,-0.887655 2.391644,-0.886846 c 1.315403,-0.487765 2.453166,-0.893322 2.528363,-0.901237 0.0752,-0.008 0.579075,0.765883 1.119729,1.719551 1.42708,2.517244 8.427223,16.278618 8.428565,16.569468 6.26e-4,0.13558 -0.822199,0.65391 -1.8285,1.15184 -1.434151,0.709637 -1.874036,0.837297 -2.035039,0.59057 -0.112971,-0.17312 -1.55835,-2.98778 -3.211953,-6.254807 -1.653602,-3.26702 -3.058383,-5.888197 -3.121734,-5.824847 -0.06335,0.0633 -0.0059,1.606317 0.127714,3.428807 0.133593,1.8225 0.313082,4.939057 0.398863,6.925697 l 0.155966,3.612067 -0.865942,0.53518 -0.865942,0.53518 -4.720002,-4.368187 c -2.596001,-2.40251 -4.964796,-4.585977 -5.263988,-4.852157 -0.431541,-0.38392 -0.251255,0.18084 0.872185,2.732177 0.778894,1.76887 2.072517,4.561417 2.874718,6.205677 0.8022,1.64425 1.45905,3.125417 1.459665,3.291477 9.95e-4,0.26843 -2.132456,1.79434 -2.944345,2.10589 -0.172388,0.0662 -0.487771,-0.0724 -0.700852,-0.30781 z m 77.787254,-5.254517 c -1.1181,-0.47614 -3.70107,-1.4355 -5.73995,-2.13191 -2.03888,-0.696407 -3.68756,-1.352397 -3.66374,-1.457767 0.0507,-0.22429 4.87111,-13.016414 6.44843,-17.112446 0.59518,-1.545599 1.17366,-2.81018 1.28551,-2.81018 0.41326,0 5.70178,1.943396 8.36634,3.074418 1.87792,0.797116 2.77743,1.304276 2.83563,1.598781 0.12185,0.616643 -0.71585,3.246783 -1.07842,3.385913 -0.16743,0.0643 -1.82455,-0.49724 -3.68246,-1.24775 -1.91269,-0.77265 -3.4682,-1.27442 -3.58588,-1.15673 -0.11432,0.11431 -0.53159,0.99293 -0.92727,1.95247 l -0.71943,1.74463 1.00791,0.42226 c 0.55434,0.23225 1.89579,0.784497 2.981,1.227237 1.08521,0.44273 1.97419,0.91989 1.97552,1.06035 9.1e-4,0.14046 -0.23382,0.92803 -0.52256,1.75016 -0.65046,1.85206 -0.71878,1.85886 -4.16543,0.41484 -1.41771,-0.59396 -2.64954,-0.99755 -2.73741,-0.89686 -0.38377,0.43974 -1.86013,4.367587 -1.68283,4.477167 0.10797,0.0667 1.04399,0.43016 2.08005,0.80762 4.85799,1.76991 5.38169,2.03193 5.23535,2.619377 -0.23222,0.93219 -1.28221,3.16132 -1.48494,3.1525 -0.10589,-0.005 -1.10734,-0.39794 -2.22542,-0.87408 z M 122.58031,29.19858 c -1.02731,-0.196 -1.85375,-0.47582 -1.85403,-0.62775 -9e-4,-0.70935 4.1438,-20.6315239 4.3349,-20.8343739 0.13954,-0.148109 0.79703,-0.08287 1.82817,0.181382 0.88565,0.226971 1.80587,0.411771 2.04492,0.410666 0.30209,-0.0014 0.39688,0.125649 0.31081,0.416529 -0.0682,0.230195 -0.83038,4.0239389 -1.69391,8.4305429 -2.07038,10.565214 -2.49989,12.442844 -2.83801,12.406584 -0.15364,-0.0165 -1.11342,-0.18909 -2.13285,-0.38358 z M 86.661695,26.68235 C 85.503472,24.499153 80.184449,14.637247 78.334937,11.24386 77.811439,10.283373 77.422386,9.4629531 77.470376,9.4207051 c 0.04799,-0.04225 1.109681,-0.30001 2.359314,-0.572803 1.848292,-0.403478 2.329991,-0.438835 2.582655,-0.18956 0.170827,0.168534 0.769849,1.326156 1.331159,2.5724929 1.643829,3.649971 5.844852,11.572308 6.035446,11.381718 0.04698,-0.047 0.516307,-3.509397 1.042958,-7.694259 0.52665,-4.184865 1.067355,-7.7411579 1.201567,-7.9028709 0.134211,-0.161715 0.916385,-0.358719 1.738166,-0.437788 0.82178,-0.07907 1.826322,-0.212162 2.232316,-0.295762 l 0.73817,-0.152002 -0.459772,2.832253 C 96.01948,10.519863 95.306184,15.453591 94.687253,19.925966 l -1.12533,8.131584 -2.262203,0.40638 c -3.58349,0.64374 -3.291946,0.75573 -4.638025,-1.78158 z m 27.525185,1.27317 -1.63705,-0.13714 -0.55585,-1.3154 c -0.46446,-1.099167 -2.10683,-4.163127 -3.1295,-5.838344 -0.1674,-0.27423 -0.65718,-0.47499 -1.34899,-0.55297 l -1.08615,-0.12242 -0.086,3.715277 c -0.0473,2.04341 -0.13981,3.766677 -0.20558,3.829477 -0.18686,0.17844 -4.3416,-0.25441 -4.56164,-0.47524 -0.19272,-0.1934 0.89426,-21.1237099 1.10813,-21.3375829 0.06,-0.06006 2.23386,0.0086 4.83069,0.152474 5.66524,0.313966 6.57383,0.566931 8.32457,2.317665 1.9065,1.9064989 2.519,4.5566639 1.64557,7.1200369 -0.416,1.220903 -1.7394,2.894393 -2.70162,3.416303 -0.34854,0.18905 -0.77655,0.43988 -0.95113,0.55739 -0.24731,0.16646 0.13576,1.11888 1.73394,4.311047 1.12825,2.25357 2.05137,4.206217 2.05137,4.339217 0,0.25025 -0.63984,0.25402 -3.43077,0.0202 z m -2.08665,-12.325912 c 1.29281,-0.668535 1.59964,-2.525658 0.71815,-4.346589 -0.57332,-1.184313 -0.60567,-1.197409 -3.47673,-1.4074769 l -2.1773,-0.159307 -0.15192,0.9194889 c -0.0835,0.505719 -0.15309,1.908822 -0.15454,3.118008 l -0.003,2.198514 1.01645,0.10492 c 1.64718,0.17002 3.41947,-0.009 4.22853,-0.427558 z"
       id="path1" /></g></svg>
